<?xml version="1.0" standalone="yes"?>
<svg xmlns="http://www.w3.org/2000/svg" width="500" height="500">
<path style="fill:#e3e9f2; stroke:none;" d="M217 112L217 113L220 113L217 112z"/>
<path style="fill:#bf9fff; stroke:none;" d="M220 112L220 113L237 113L220 112z"/>
<path style="fill:#e3e9f2; stroke:none;" d="M237 112L237 113L240 113L237 112M210.667 113.333L211.333 113.667L210.667 113.333z"/>
<path style="fill:#bf9fff; stroke:none;" d="M212 113L212 114L215 114L212 113z"/>
<path style="fill:#8d53ff; stroke:none;" d="M189 280C264.044 298.488 333.579 218.354 294.688 148C266.249 96.5554 189.234 106.267 154.09 144C121.584 178.9 127.907 224.243 124.91 268C123.081 294.714 121.665 322.707 137.36 346C156.533 374.456 193.531 384.272 226 381.17C287.999 375.246 343.348 341.74 371.244 285C379.998 267.193 383.952 248.512 386.285 229C387.257 220.874 389.107 209.665 385.427 202.001C377.035 184.519 349.969 190.618 339.468 202.174C332.034 210.354 332.914 220.796 331.246 231C329.171 243.693 324.972 256.812 318.573 268C301.612 297.649 268.387 323.917 233 325.021C214.783 325.589 195.813 320.563 189.774 301C187.544 293.775 188.939 287.326 189 280z"/>
<path style="fill:#bf9fff; stroke:none;" d="M241 113L241 114L244 114L241 113z"/>
<path style="fill:#e3e9f2; stroke:none;" d="M244.667 113.333L245.333 113.667L244.667 113.333M204.667 114.333L205.333 114.667L204.667 114.333z"/>
<path style="fill:#bf9fff; stroke:none;" d="M206 114L206 115L209 115L206 114M247 114L247 115L250 115L247 114z"/>
<path style="fill:#e3e9f2; stroke:none;" d="M250.667 114.333L251.333 114.667L250.667 114.333M200 115L201 116L200 115z"/>
<path style="fill:#bf9fff; stroke:none;" d="M201.667 115.333L202.333 115.667L201.667 115.333M253 115L254 116L253 115z"/>
<path style="fill:#e3e9f2; stroke:none;" d="M254.667 115.333L255.333 115.667L254.667 115.333M197 116L198 117L197 116z"/>
<path style="fill:#bf9fff; stroke:none;" d="M198 116L199 117L198 116M256 116L257 117L256 116z"/>
<path style="fill:#e3e9f2; stroke:none;" d="M257 116L258 117L257 116M194 117L195 118L194 117z"/>
<path style="fill:#bf9fff; stroke:none;" d="M195 117L196 118L195 117M259 117L260 118L259 117z"/>
<path style="fill:#e3e9f2; stroke:none;" d="M260 117L261 118L260 117M191 118L192 119L191 118z"/>
<path style="fill:#bf9fff; stroke:none;" d="M192.667 118.333L193.333 118.667L192.667 118.333z"/>
<path style="fill:#e3e9f2; stroke:none;" d="M261.667 118.333L262.333 118.667L261.667 118.333M189 119L190 120L189 119z"/>
<path style="fill:#bf9fff; stroke:none;" d="M190 119L191 120L190 119M263 119L264 120L263 119z"/>
<path style="fill:#e3e9f2; stroke:none;" d="M264 119L265 120L264 119M186 120L187 121L186 120z"/>
<path style="fill:#bf9fff; stroke:none;" d="M187 120L188 121L187 120M265 120L266 121L265 120z"/>
<path style="fill:#e3e9f2; stroke:none;" d="M266 120L267 121L266 120M184 121L185 122L184 121z"/>
<path style="fill:#bf9fff; stroke:none;" d="M185 121L186 122L185 121z"/>
<path style="fill:#e3e9f2; stroke:none;" d="M267 121L268 122L267 121M182 122L183 123L182 122z"/>
<path style="fill:#bf9fff; stroke:none;" d="M183 122L184 123L183 122M268 122L269 123L268 122z"/>
<path style="fill:#e3e9f2; stroke:none;" d="M269 122L270 123L269 122M180 123L181 124L180 123z"/>
<path style="fill:#bf9fff; stroke:none;" d="M181 123L182 124L181 123M270 123L271 124L270 123z"/>
<path style="fill:#e3e9f2; stroke:none;" d="M271 123L272 124L271 123M178 124L179 125L178 124z"/>
<path style="fill:#bf9fff; stroke:none;" d="M179 124L180 125L179 124z"/>
<path style="fill:#e3e9f2; stroke:none;" d="M272 124L273 125L272 124M177 125L178 126L177 125z"/>
<path style="fill:#bf9fff; stroke:none;" d="M273 125L274 126L273 125z"/>
<path style="fill:#e3e9f2; stroke:none;" d="M274 125L275 126L274 125M175 126L176 127L175 126z"/>
<path style="fill:#bf9fff; stroke:none;" d="M176 126L177 127L176 126z"/>
<path style="fill:#e3e9f2; stroke:none;" d="M275 126L276 127L275 126M173 127L174 128L173 127z"/>
<path style="fill:#bf9fff; stroke:none;" d="M174 127L175 128L174 127M276 127L277 128L276 127z"/>
<path style="fill:#e3e9f2; stroke:none;" d="M172 128L173 129L172 128z"/>
<path style="fill:#bf9fff; stroke:none;" d="M277 128L278 129L277 128z"/>
<path style="fill:#e3e9f2; stroke:none;" d="M278 128L279 129L278 128M170 129L171 130L170 129z"/>
<path style="fill:#bf9fff; stroke:none;" d="M171 129L172 130L171 129z"/>
<path style="fill:#e3e9f2; stroke:none;" d="M279 129L280 130L279 129M169 130L170 131L169 130M280 130L281 131L280 130z"/>
<path style="fill:#bf9fff; stroke:none;" d="M168 131L169 132L168 131z"/>
<path style="fill:#e3e9f2; stroke:none;" d="M281 131L282 132L281 131M166 132L167 133L166 132z"/>
<path style="fill:#bf9fff; stroke:none;" d="M167 132L168 133L167 132z"/>
<path style="fill:#e3e9f2; stroke:none;" d="M282 132L283 133L282 132M165 133L166 134L165 133z"/>
<path style="fill:#4fa591; stroke:none;" d="M283 133C293.71 148.385 302.36 160.837 304.714 180C310.262 225.177 279.517 268.168 236 280.079C220.522 284.316 204.545 282.929 189 280C188.653 296.836 189.088 316.141 209 322C202.92 310.443 202.965 302.637 203 290C238.486 296.882 276.035 288.758 299.482 259C327.38 223.593 330.173 155.056 283 133z"/>
<path style="fill:#e3e9f2; stroke:none;" d="M284 133L285 134L284 133z"/>
<path style="fill:#bf9fff; stroke:none;" d="M164 134L165 135L164 134z"/>
<path style="fill:#e3e9f2; stroke:none;" d="M286 134L287 135L286 134M162 135L163 136L162 135z"/>
<path style="fill:#bf9fff; stroke:none;" d="M163 135L164 136L163 135z"/>
<path style="fill:#e3e9f2; stroke:none;" d="M287.667 135.333L288.333 135.667L287.667 135.333z"/>
<path style="fill:#bf9fff; stroke:none;" d="M161 136L162 137L161 136z"/>
<path style="fill:#e3e9f2; stroke:none;" d="M289 136L290 137L289 136M159 137L156 141L159 137z"/>
<path style="fill:#bf9fff; stroke:none;" d="M160 137L161 138L160 137z"/>
<path style="fill:#e3e9f2; stroke:none;" d="M291 137L292 138L291 137z"/>
<path style="fill:#bf9fff; stroke:none;" d="M159 138L160 139L159 138z"/>
<path style="fill:#e3e9f2; stroke:none;" d="M292 138L293 139L292 138z"/>
<path style="fill:#bf9fff; stroke:none;" d="M158 139L159 140L158 139z"/>
<path style="fill:#e3e9f2; stroke:none;" d="M293 139L294 140L293 139z"/>
<path style="fill:#bf9fff; stroke:none;" d="M157 140L158 141L157 140z"/>
<path style="fill:#e3e9f2; stroke:none;" d="M294 140L295 141L294 140z"/>
<path style="fill:#bf9fff; stroke:none;" d="M156 141L157 142L156 141M295 141L296 142L295 141z"/>
<path style="fill:#e3e9f2; stroke:none;" d="M296 141L297 142L296 141M155 142L156 143L155 142M297 142L298 143L297 142M154 143L155 144L154 143M298 143L299 144L298 143M153 144L154 145L153 144z"/>
<path style="fill:#bf9fff; stroke:none;" d="M298 144L299 145L298 144z"/>
<path style="fill:#e3e9f2; stroke:none;" d="M152 145L153 146L152 145M299 145L300 146L299 145M151 146L152 147L151 146M300 146L301 147L300 146M150 147L149 149L150 147M301 147L302 148L301 147z"/>
<path style="fill:#bf9fff; stroke:none;" d="M150 148L151 149L150 148z"/>
<path style="fill:#e3e9f2; stroke:none;" d="M302 148L303 149L302 148z"/>
<path style="fill:#bf9fff; stroke:none;" d="M149 149L150 150L149 149M148 150L149 151L148 150z"/>
<path style="fill:#e3e9f2; stroke:none;" d="M303 150L304 151L303 150M147 151L148 152L147 151M304 151L305 152L304 151M146 152L147 153L146 152M305.333 152.667L305.667 153.333L305.333 152.667z"/>
<path style="fill:#bf9fff; stroke:none;" d="M146 153L147 154L146 153M145 154L146 155L145 154z"/>
<path style="fill:#e3e9f2; stroke:none;" d="M306 154L307 155L306 154M144 155L145 156L144 155M307 155L308 156L307 155M143 156L144 157L143 156M308.333 156.667L308.667 157.333L308.333 156.667M142 157L143 158L142 157z"/>
<path style="fill:#bf9fff; stroke:none;" d="M142 158L143 159L142 158z"/>
<path style="fill:#e3e9f2; stroke:none;" d="M309 158L310 159L309 158M141 159L142 160L141 159z"/>
<path style="fill:#bf9fff; stroke:none;" d="M309 159L310 160L309 159M141 160L142 161L141 160z"/>
<path style="fill:#e3e9f2; stroke:none;" d="M310 160L311 161L310 160M140 161L141 162L140 161M139 162L140 163L139 162M311 162L312 163L311 162z"/>
<path style="fill:#bf9fff; stroke:none;" d="M139 163L140 164L139 163z"/>
<path style="fill:#e3e9f2; stroke:none;" d="M138 164L139 165L138 164M312 164L313 165L312 164z"/>
<path style="fill:#bf9fff; stroke:none;" d="M138 165L139 166L138 165M312 165L313 166L312 165z"/>
<path style="fill:#e3e9f2; stroke:none;" d="M137 166L138 167L137 166M313.333 166.667L313.667 167.333L313.333 166.667z"/>
<path style="fill:#bf9fff; stroke:none;" d="M137 167L138 168L137 167z"/>
<path style="fill:#4fa591; stroke:none;" d="M207 226C207 205.471 209.124 179.059 235 177C229.656 165.786 213.975 164.739 205.001 172.225C193.064 182.181 193.166 197.698 192.996 212C192.957 215.322 190.852 221.578 193.032 224.397C195.423 227.49 203.524 226 207 226z"/>
<path style="fill:#e3e9f2; stroke:none;" d="M136 168L137 169L136 168z"/>
<path style="fill:#bf9fff; stroke:none;" d="M136 169L137 170L136 169z"/>
<path style="fill:#e3e9f2; stroke:none;" d="M314 169L315 170L314 169M135.333 170.667L135.667 171.333L135.333 170.667M315.333 171.667L315.667 172.333L315.333 171.667z"/>
<path style="fill:#bf9fff; stroke:none;" d="M135 172L136 173L135 172z"/>
<path style="fill:#e3e9f2; stroke:none;" d="M134.333 173.667L134.667 174.333L134.333 173.667M316.333 174.667L316.667 175.333L316.333 174.667z"/>
<path style="fill:#bf9fff; stroke:none;" d="M134 175L135 176L134 175z"/>
<path style="fill:#e3e9f2; stroke:none;" d="M133 176L134 177L133 176z"/>
<path style="fill:#bf9fff; stroke:none;" d="M133 177L134 178L133 177z"/>
<path style="fill:#e3e9f2; stroke:none;" d="M230 177L230 178L235 178L230 177z"/>
<path style="fill:#bf9fff; stroke:none;" d="M235 177L236 178L235 177z"/>
<path style="fill:#e3e9f2; stroke:none;" d="M317 177L317 180L318 180L317 177M132 178L133 179L132 178M215 187L227 179C221.831 178.16 217.743 183.141 215 187z"/>
<path style="fill:#010101; stroke:none;" d="M207 225C224.694 224.633 240.124 212.194 239.995 194C239.965 189.651 239.82 182.79 236.347 179.603C225.097 169.283 210.854 192.645 209.015 201C207.295 208.82 208.004 217.053 207 225z"/>
<path style="fill:#e3e9f2; stroke:none;" d="M236 178L237 179L236 178z"/>
<path style="fill:#bf9fff; stroke:none;" d="M132.333 179.667L132.667 180.333L132.333 179.667M237 179L238 180L237 179z"/>
<path style="fill:#e3e9f2; stroke:none;" d="M237 180L238 181L237 180M131.333 181.667L131.667 182.333L131.333 181.667z"/>
<path style="fill:#bf9fff; stroke:none;" d="M238 181L239 182L238 181z"/>
<path style="fill:#e3e9f2; stroke:none;" d="M318 181L318 185L319 185L318 181M238 182L239 183L238 182z"/>
<path style="fill:#bf9fff; stroke:none;" d="M131 183L132 184L131 183z"/>
<path style="fill:#e3e9f2; stroke:none;" d="M130.333 184.667L130.667 185.333L130.333 184.667z"/>
<path style="fill:#bf9fff; stroke:none;" d="M239.333 184.667L239.667 185.333L239.333 184.667M130 186L131 187L130 186z"/>
<path style="fill:#e3e9f2; stroke:none;" d="M239.333 186.667L239.667 187.333L239.333 186.667z"/>
<path style="fill:#bf9fff; stroke:none;" d="M214 187L215 188L214 187z"/>
<path style="fill:#e3e9f2; stroke:none;" d="M319 187L319 192L320 192L319 187M129.333 188.667L129.667 189.333L129.333 188.667M214 188L215 189L214 188M213 189L214 190L213 189z"/>
<path style="fill:#bf9fff; stroke:none;" d="M129.333 190.667L129.667 191.333L129.333 190.667M212 190L213 191L212 190M240 190L240 199L241 199L240 190z"/>
<path style="fill:#e3e9f2; stroke:none;" d="M363 190L363 191L368 191L363 190M212 191L213 192L212 191M357 191L358 192L357 191z"/>
<path style="fill:#bf9fff; stroke:none;" d="M358 191L358 192L361 192L358 191M369 191L369 192L372 192L369 191z"/>
<path style="fill:#e3e9f2; stroke:none;" d="M372 191L373 192L372 191M211.333 192.667L211.667 193.333L211.333 192.667z"/>
<path style="fill:#bf9fff; stroke:none;" d="M319 192L320 193L319 192z"/>
<path style="fill:#e3e9f2; stroke:none;" d="M353.667 192.333L354.333 192.667L353.667 192.333z"/>
<path style="fill:#bf9fff; stroke:none;" d="M355 192L356 193L355 192M374 192L375 193L374 192z"/>
<path style="fill:#e3e9f2; stroke:none;" d="M375 192L376 193L375 192M128.333 193.667L128.667 194.333L128.333 193.667M351 193L352 194L351 193z"/>
<path style="fill:#bf9fff; stroke:none;" d="M352 193L353 194L352 193M376 193L377 194L376 193z"/>
<path style="fill:#e3e9f2; stroke:none;" d="M377 193L378 194L377 193M349 194L350 195L349 194z"/>
<path style="fill:#bf9fff; stroke:none;" d="M350 194L351 195L350 194M378 194L379 195L378 194z"/>
<path style="fill:#e3e9f2; stroke:none;" d="M379 194L380 195L379 194z"/>
<path style="fill:#bf9fff; stroke:none;" d="M128.333 195.667L128.667 196.333L128.333 195.667z"/>
<path style="fill:#e3e9f2; stroke:none;" d="M210 195L211 196L210 195M347 195L348 196L347 195M380 195L381 196L380 195M345 196L346 197L345 196z"/>
<path style="fill:#bf9fff; stroke:none;" d="M346 196L347 197L346 196z"/>
<path style="fill:#e3e9f2; stroke:none;" d="M381 196L382 197L381 196M209.333 197.667L209.667 198.333L209.333 197.667M343 197L341 200L343 197z"/>
<path style="fill:#bf9fff; stroke:none;" d="M344 197L345 198L344 197M382 197L383 198L382 197z"/>
<path style="fill:#e3e9f2; stroke:none;" d="M127.333 198.667L127.667 199.333L127.333 198.667M320 198L320 203L321 203L320 198z"/>
<path style="fill:#bf9fff; stroke:none;" d="M343 198L344 199L343 198M383 198L384 199L383 198M342 199L343 200L342 199z"/>
<path style="fill:#e3e9f2; stroke:none;" d="M384 199L385 200L384 199z"/>
<path style="fill:#bf9fff; stroke:none;" d="M127 200L127 204L128 204L127 200M208 200L209 201L208 200z"/>
<path style="fill:#e3e9f2; stroke:none;" d="M340 200L341 201L340 200M208 201L208 204L209 204L208 201M239.333 201.667L239.667 202.333L239.333 201.667M339 201L340 202L339 201z"/>
<path style="fill:#bf9fff; stroke:none;" d="M385 201L386 202L385 201z"/>
<path style="fill:#e3e9f2; stroke:none;" d="M386 201L387 202L386 201M338 202L339 203L338 202z"/>
<path style="fill:#4fa591; stroke:none;" d="M386 202C400.481 316.486 269.909 413.619 165 370C180.54 389.076 214.302 392.645 237 391.09C298.206 386.894 361.45 352.966 385.988 294C394.644 273.2 401.43 250.722 401.985 228C402.267 216.49 399.011 204.357 386 202z"/>
<path style="fill:#e3e9f2; stroke:none;" d="M389 202L390 203L389 202z"/>
<path style="fill:#bf9fff; stroke:none;" d="M239.333 203.667L239.667 204.333L239.333 203.667M338 203L339 204L338 203z"/>
<path style="fill:#e3e9f2; stroke:none;" d="M391 203L392 204L391 203z"/>
<path style="fill:#bf9fff; stroke:none;" d="M337 204L338 205L337 204z"/>
<path style="fill:#e3e9f2; stroke:none;" d="M393 204L394 205L393 204M336 205L337 206L336 205M394 205L395 206L394 205M238 206L239 207L238 206M395 206L396 207L395 206M335 207L336 208L335 207M396 207L397 208L396 207M126 208L126 216L127 216L126 208M237 208L238 209L237 208M334 208L335 209L334 208M397 208L398 209L397 208M236 209L237 210L236 209z"/>
<path style="fill:#bf9fff; stroke:none;" d="M319 209L320 210L319 209M334 209L335 210L334 209z"/>
<path style="fill:#e3e9f2; stroke:none;" d="M398 209L399 210L398 209z"/>
<path style="fill:#bf9fff; stroke:none;" d="M207 210L208 211L207 210M236 210L237 211L236 210z"/>
<path style="fill:#e3e9f2; stroke:none;" d="M319 210L319 214L320 214L319 210M207 211L207 222L208 222L207 211M235 211L236 212L235 211M333 211L334 212L333 211M399 211L400 212L399 211M234 212L235 213L234 212z"/>
<path style="fill:#bf9fff; stroke:none;" d="M333 212L334 213L333 212z"/>
<path style="fill:#e3e9f2; stroke:none;" d="M233 213L230 217L233 213M400 213L401 214L400 213z"/>
<path style="fill:#bf9fff; stroke:none;" d="M233 214L234 215L233 214z"/>
<path style="fill:#e3e9f2; stroke:none;" d="M332.333 214.667L332.667 215.333L332.333 214.667z"/>
<path style="fill:#bf9fff; stroke:none;" d="M232 215L233 216L232 215z"/>
<path style="fill:#e3e9f2; stroke:none;" d="M401 215L401 218L402 218L401 215z"/>
<path style="fill:#bf9fff; stroke:none;" d="M126 216L126 225L127 225L126 216M231 216L232 217L231 216M332 216L332 221L333 221L332 216z"/>
<path style="fill:#e3e9f2; stroke:none;" d="M229 217L230 218L229 217M318 217L318 220L319 220L318 217M227 218L228 219L227 218z"/>
<path style="fill:#bf9fff; stroke:none;" d="M228 218L229 219L228 218z"/>
<path style="fill:#e3e9f2; stroke:none;" d="M225 219L226 220L225 219z"/>
<path style="fill:#bf9fff; stroke:none;" d="M226 219L227 220L226 219z"/>
<path style="fill:#e3e9f2; stroke:none;" d="M223 220L224 221L223 220z"/>
<path style="fill:#bf9fff; stroke:none;" d="M224 220L225 221L224 220z"/>
<path style="fill:#e3e9f2; stroke:none;" d="M402 220L402 227L403 227L402 220M221 221L222 222L221 221z"/>
<path style="fill:#bf9fff; stroke:none;" d="M222 221L223 222L222 221z"/>
<path style="fill:#e3e9f2; stroke:none;" d="M317 221L317 224L318 224L317 221M219 222L220 223L219 222z"/>
<path style="fill:#bf9fff; stroke:none;" d="M220 222L221 223L220 222z"/>
<path style="fill:#e3e9f2; stroke:none;" d="M217 223L218 224L217 223z"/>
<path style="fill:#bf9fff; stroke:none;" d="M218 223L219 224L218 223z"/>
<path style="fill:#e3e9f2; stroke:none;" d="M213 224L214 225L213 224z"/>
<path style="fill:#bf9fff; stroke:none;" d="M214.667 224.333L215.333 224.667L214.667 224.333z"/>
<path style="fill:#e3e9f2; stroke:none;" d="M331 224L331 227L332 227L331 224M207 225L207 226L210 226L207 225z"/>
<path style="fill:#bf9fff; stroke:none;" d="M210.667 225.333L211.333 225.667L210.667 225.333z"/>
<path style="fill:#e3e9f2; stroke:none;" d="M316 225L316 228L317 228L316 225z"/>
<path style="fill:#bf9fff; stroke:none;" d="M331 227L331 230L332 230L331 227M315 228L316 229L315 228z"/>
<path style="fill:#e3e9f2; stroke:none;" d="M315.333 229.667L315.667 230.333L315.333 229.667M125 231L125 239L126 239L125 231M330.333 231.667L330.667 232.333L330.333 231.667M314.333 232.667L314.667 233.333L314.333 232.667z"/>
<path style="fill:#bf9fff; stroke:none;" d="M330 233L330 236L331 236L330 233M401 233L402 234L401 233z"/>
<path style="fill:#e3e9f2; stroke:none;" d="M313.333 234.667L313.667 235.333L313.333 234.667M401 234L401 239L402 239L401 234M312 237L313 238L312 237M329 237L330 238L329 237z"/>
<path style="fill:#bf9fff; stroke:none;" d="M329.333 238.667L329.667 239.333L329.333 238.667M125 239L125 249L126 249L125 239z"/>
<path style="fill:#e3e9f2; stroke:none;" d="M311 239L312 240L311 239M310 241L311 242L310 241M328 241L329 242L328 241z"/>
<path style="fill:#bf9fff; stroke:none;" d="M328.333 242.667L328.667 243.333L328.333 242.667z"/>
<path style="fill:#e3e9f2; stroke:none;" d="M400 242L400 246L401 246L400 242M309 243L310 244L309 243M327.333 244.667L327.667 245.333L327.333 244.667M308 245L309 246L308 245M307.333 246.667L307.667 247.333L307.333 246.667z"/>
<path style="fill:#bf9fff; stroke:none;" d="M327 246L328 247L327 246z"/>
<path style="fill:#e3e9f2; stroke:none;" d="M306 248L307 249L306 248M326 248L327 249L326 248z"/>
<path style="fill:#bf9fff; stroke:none;" d="M326 249L327 250L326 249z"/>
<path style="fill:#e3e9f2; stroke:none;" d="M399 249L399 253L400 253L399 249M305 250L306 251L305 250M304 251L305 252L304 251M325 251L326 252L325 251z"/>
<path style="fill:#bf9fff; stroke:none;" d="M325 252L326 253L325 252z"/>
<path style="fill:#e3e9f2; stroke:none;" d="M303 253L304 254L303 253M324 253L325 254L324 253M124 254L124 262L125 262L124 254z"/>
<path style="fill:#bf9fff; stroke:none;" d="M302 254L303 255L302 254M324.333 254.667L324.667 255.333L324.333 254.667M398 254L399 255L398 254z"/>
<path style="fill:#e3e9f2; stroke:none;" d="M302 255L303 256L302 255M398 255L398 258L399 258L398 255M301 256L302 257L301 256M323 256L324 257L323 256z"/>
<path style="fill:#bf9fff; stroke:none;" d="M300 257L301 258L300 257M323 257L324 258L323 257z"/>
<path style="fill:#e3e9f2; stroke:none;" d="M300 258L301 259L300 258M322.333 258.667L322.667 259.333L322.333 258.667M299 259L300 260L299 259z"/>
<path style="fill:#bf9fff; stroke:none;" d="M397 259L398 260L397 259z"/>
<path style="fill:#e3e9f2; stroke:none;" d="M298 260L299 261L298 260z"/>
<path style="fill:#bf9fff; stroke:none;" d="M322 260L323 261L322 260z"/>
<path style="fill:#e3e9f2; stroke:none;" d="M397.333 260.667L397.667 261.333L397.333 260.667M297 261L298 262L297 261M321 261L322 262L321 261z"/>
<path style="fill:#bf9fff; stroke:none;" d="M124 262L124 272L125 272L124 262z"/>
<path style="fill:#e3e9f2; stroke:none;" d="M296 262L297 263L296 262z"/>
<path style="fill:#bf9fff; stroke:none;" d="M321 262L322 263L321 262z"/>
<path style="fill:#e3e9f2; stroke:none;" d="M295 263L296 264L295 263M320 263L321 264L320 263M396 263L396 266L397 266L396 263M294 264L295 265L294 264z"/>
<path style="fill:#bf9fff; stroke:none;" d="M320 264L321 265L320 264z"/>
<path style="fill:#e3e9f2; stroke:none;" d="M293 265L294 266L293 265M319 265L320 266L319 265M292 266L293 267L292 266z"/>
<path style="fill:#bf9fff; stroke:none;" d="M319 266L320 267L319 266z"/>
<path style="fill:#e3e9f2; stroke:none;" d="M291 267L292 268L291 267M318 267L319 268L318 267M395 267L395 270L396 270L395 267M290 268L291 269L290 268z"/>
<path style="fill:#bf9fff; stroke:none;" d="M318 268L319 269L318 268z"/>
<path style="fill:#e3e9f2; stroke:none;" d="M289 269L290 270L289 269M317 269L318 270L317 269M288 270L289 271L288 270z"/>
<path style="fill:#bf9fff; stroke:none;" d="M286 271L287 272L286 271z"/>
<path style="fill:#e3e9f2; stroke:none;" d="M287 271L288 272L287 271z"/>
<path style="fill:#bf9fff; stroke:none;" d="M316 271L317 272L316 271z"/>
<path style="fill:#e3e9f2; stroke:none;" d="M394.333 271.667L394.667 272.333L394.333 271.667M285 272L286 273L285 272M315 272L316 273L315 272M284 273L285 274L284 273z"/>
<path style="fill:#bf9fff; stroke:none;" d="M315 273L316 274L315 273z"/>
<path style="fill:#e3e9f2; stroke:none;" d="M283 274L284 275L283 274M314 274L315 275L314 274M393.333 274.667L393.667 275.333L393.333 274.667M282 275L283 276L282 275M313 275L314 276L313 275z"/>
<path style="fill:#bf9fff; stroke:none;" d="M280 276L281 277L280 276z"/>
<path style="fill:#e3e9f2; stroke:none;" d="M281 276L282 277L281 276z"/>
<path style="fill:#bf9fff; stroke:none;" d="M313 276L314 277L313 276z"/>
<path style="fill:#e3e9f2; stroke:none;" d="M279 277L280 278L279 277M312 277L313 278L312 277M392.333 277.667L392.667 278.333L392.333 277.667M123 278L123 285L124 285L123 278M277.667 278.333L278.333 278.667L277.667 278.333M311 278L312 279L311 278M276 279L277 280L276 279z"/>
<path style="fill:#bf9fff; stroke:none;" d="M311 279L312 280L311 279z"/>
<path style="fill:#e3e9f2; stroke:none;" d="M274 280L275 281L274 280z"/>
<path style="fill:#bf9fff; stroke:none;" d="M310 280L311 281L310 280z"/>
<path style="fill:#e3e9f2; stroke:none;" d="M391.333 280.667L391.667 281.333L391.333 280.667M272.667 281.333L273.333 281.667L272.667 281.333M309 281L310 282L309 281M270 282L271 283L270 282M308 282L309 283L308 282z"/>
<path style="fill:#bf9fff; stroke:none;" d="M390 282L391 283L390 282z"/>
<path style="fill:#e3e9f2; stroke:none;" d="M268 283L269 284L268 283M307 283L308 284L307 283M390 283L391 284L390 283M265.667 284.333L266.333 284.667L265.667 284.333M306 284L305 286L306 284z"/>
<path style="fill:#bf9fff; stroke:none;" d="M123 285L123 305L124 305L123 285z"/>
<path style="fill:#e3e9f2; stroke:none;" d="M263.667 285.333L264.333 285.667L263.667 285.333z"/>
<path style="fill:#bf9fff; stroke:none;" d="M306 285L307 286L306 285z"/>
<path style="fill:#e3e9f2; stroke:none;" d="M389.333 285.667L389.667 286.333L389.333 285.667M261 286L262 287L261 286z"/>
<path style="fill:#bf9fff; stroke:none;" d="M305 286L306 287L305 286M258 287L259 288L258 287z"/>
<path style="fill:#e3e9f2; stroke:none;" d="M259 287L260 288L259 287z"/>
<path style="fill:#bf9fff; stroke:none;" d="M304 287L305 288L304 287M388 287L389 288L388 287z"/>
<path style="fill:#e3e9f2; stroke:none;" d="M256.667 288.333L257.333 288.667L256.667 288.333M303 288L304 289L303 288M388 288L389 289L388 288M252 289L252 290L255 290L252 289M302 289L303 290L302 289M203 290L203 294L204 294L206 291L203 290z"/>
<path style="fill:#bf9fff; stroke:none;" d="M248 290L249 291L248 290z"/>
<path style="fill:#e3e9f2; stroke:none;" d="M249.667 290.333L250.333 290.667L249.667 290.333M301 290L302 291L301 290M387.333 290.667L387.667 291.333L387.333 290.667M208 291L208 292L211 292L208 291M244 291L244 292L247 292L244 291z"/>
<path style="fill:#bf9fff; stroke:none;" d="M301 291L302 292L301 291z"/>
<path style="fill:#e3e9f2; stroke:none;" d="M213 292L213 293L218 293L213 292z"/>
<path style="fill:#bf9fff; stroke:none;" d="M237 292L238 293L237 292z"/>
<path style="fill:#e3e9f2; stroke:none;" d="M238 292L238 293L242 293L238 292z"/>
<path style="fill:#bf9fff; stroke:none;" d="M300 292L301 293L300 292z"/>
<path style="fill:#e3e9f2; stroke:none;" d="M386.333 292.667L386.667 293.333L386.333 292.667M221 293L221 294L234 294L221 293z"/>
<path style="fill:#bf9fff; stroke:none;" d="M299 293L300 294L299 293z"/>
<path style="fill:#e3e9f2; stroke:none;" d="M297 294L294 298L297 294z"/>
<path style="fill:#bf9fff; stroke:none;" d="M298 294L299 295L298 294M297 295L298 296L297 295z"/>
<path style="fill:#e3e9f2; stroke:none;" d="M385.333 295.667L385.667 296.333L385.333 295.667z"/>
<path style="fill:#bf9fff; stroke:none;" d="M296 296L297 297L296 296M295 297L296 298L295 297M384 297L385 298L384 297z"/>
<path style="fill:#e3e9f2; stroke:none;" d="M202 298L202 305L203 305L202 298M293 298L294 299L293 298M384 298L385 299L384 298M292 299L293 300L292 299z"/>
<path style="fill:#bf9fff; stroke:none;" d="M383 299L384 300L383 299z"/>
<path style="fill:#e3e9f2; stroke:none;" d="M291 300L292 301L291 300M383 300L384 301L383 300M289 301L290 302L289 301z"/>
<path style="fill:#bf9fff; stroke:none;" d="M290 301L291 302L290 301M382 301L383 302L382 301z"/>
<path style="fill:#e3e9f2; stroke:none;" d="M288 302L289 303L288 302M382 302L383 303L382 302M286 303L287 304L286 303z"/>
<path style="fill:#bf9fff; stroke:none;" d="M287 303L288 304L287 303z"/>
<path style="fill:#e3e9f2; stroke:none;" d="M381 303L382 304L381 303M285 304L286 305L285 304M123 305L123 309L124 309L123 305z"/>
<path style="fill:#bf9fff; stroke:none;" d="M202 305L203 306L202 305z"/>
<path style="fill:#e3e9f2; stroke:none;" d="M283 305L284 306L283 305z"/>
<path style="fill:#bf9fff; stroke:none;" d="M284 305L285 306L284 305z"/>
<path style="fill:#e3e9f2; stroke:none;" d="M380 305L381 306L380 305M282 306L283 307L282 306M379.333 306.667L379.667 307.333L379.333 306.667z"/>
<path style="fill:#bf9fff; stroke:none;" d="M281 307L282 308L281 307z"/>
<path style="fill:#e3e9f2; stroke:none;" d="M203 308L203 311L204 311L203 308M279 308L280 309L279 308z"/>
<path style="fill:#bf9fff; stroke:none;" d="M280 308L281 309L280 308z"/>
<path style="fill:#e3e9f2; stroke:none;" d="M378 308L379 309L378 308M278 309L279 310L278 309M276 310L277 311L276 310z"/>
<path style="fill:#bf9fff; stroke:none;" d="M277 310L278 311L277 310z"/>
<path style="fill:#e3e9f2; stroke:none;" d="M377 310L378 311L377 310z"/>
<path style="fill:#bf9fff; stroke:none;" d="M124 311L124 314L125 314L124 311z"/>
<path style="fill:#e3e9f2; stroke:none;" d="M274 311L275 312L274 311z"/>
<path style="fill:#bf9fff; stroke:none;" d="M275 311L276 312L275 311M376 311L377 312L376 311z"/>
<path style="fill:#e3e9f2; stroke:none;" d="M204.333 312.667L204.667 313.333L204.333 312.667M272 312L273 313L272 312z"/>
<path style="fill:#bf9fff; stroke:none;" d="M273 312L274 313L273 312z"/>
<path style="fill:#e3e9f2; stroke:none;" d="M376 312L377 313L376 312M271 313L272 314L271 313M375 313L376 314L375 313M124.333 314.667L124.667 315.333L124.333 314.667M269 314L270 315L269 314M205 315L206 316L205 315M267 315L268 316L267 315z"/>
<path style="fill:#bf9fff; stroke:none;" d="M268 315L269 316L268 315z"/>
<path style="fill:#e3e9f2; stroke:none;" d="M374 315L375 316L374 315M264 316L265 317L264 316z"/>
<path style="fill:#bf9fff; stroke:none;" d="M265 316L266 317L265 316z"/>
<path style="fill:#e3e9f2; stroke:none;" d="M373 316L374 317L373 316z"/>
<path style="fill:#bf9fff; stroke:none;" d="M125.333 317.667L125.667 318.333L125.333 317.667z"/>
<path style="fill:#e3e9f2; stroke:none;" d="M206 317L207 318L206 317M262 317L263 318L262 317z"/>
<path style="fill:#bf9fff; stroke:none;" d="M263 317L264 318L263 317z"/>
<path style="fill:#e3e9f2; stroke:none;" d="M260 318L261 319L260 318z"/>
<path style="fill:#bf9fff; stroke:none;" d="M261 318L262 319L261 318z"/>
<path style="fill:#e3e9f2; stroke:none;" d="M372 318L373 319L372 318M125.333 319.667L125.667 320.333L125.333 319.667M207 319L208 320L207 319M258 319L259 320L258 319z"/>
<path style="fill:#bf9fff; stroke:none;" d="M259 319L260 320L259 319z"/>
<path style="fill:#e3e9f2; stroke:none;" d="M371 319L372 320L371 319M208 320L209 321L208 320M255 320L256 321L255 320z"/>
<path style="fill:#bf9fff; stroke:none;" d="M256 320L257 321L256 320z"/>
<path style="fill:#e3e9f2; stroke:none;" d="M370.333 320.667L370.667 321.333L370.333 320.667z"/>
<path style="fill:#bf9fff; stroke:none;" d="M126.333 321.667L126.667 322.333L126.333 321.667z"/>
<path style="fill:#e3e9f2; stroke:none;" d="M251.667 321.333L252.333 321.667L251.667 321.333z"/>
<path style="fill:#bf9fff; stroke:none;" d="M253 321L254 322L253 321M209.667 322.333L210.333 322.667L209.667 322.333z"/>
<path style="fill:#e3e9f2; stroke:none;" d="M211.667 322.333L212.333 322.667L211.667 322.333M245 322L245 323L248 323L245 322z"/>
<path style="fill:#bf9fff; stroke:none;" d="M248.667 322.333L249.333 322.667L248.667 322.333z"/>
<path style="fill:#e3e9f2; stroke:none;" d="M369 322L370 323L369 322M126 323L127 324L126 323z"/>
<path style="fill:#bf9fff; stroke:none;" d="M214 323L215 324L214 323z"/>
<path style="fill:#e3e9f2; stroke:none;" d="M215.667 323.333L216.333 323.667L215.667 323.333M241.667 323.333L242.333 323.667L241.667 323.333z"/>
<path style="fill:#bf9fff; stroke:none;" d="M243.667 323.333L244.333 323.667L243.667 323.333z"/>
<path style="fill:#e3e9f2; stroke:none;" d="M368 323L369 324L368 323z"/>
<path style="fill:#bf9fff; stroke:none;" d="M127.333 324.667L127.667 325.333L127.333 324.667M218.667 324.333L219.333 324.667L218.667 324.333z"/>
<path style="fill:#e3e9f2; stroke:none;" d="M220 324L220 325L223 325L220 324M233 324L233 325L237 325L233 324z"/>
<path style="fill:#bf9fff; stroke:none;" d="M237 324L237 325L240 325L237 324z"/>
<path style="fill:#e3e9f2; stroke:none;" d="M367 324L368 325L367 324z"/>
<path style="fill:#bf9fff; stroke:none;" d="M227.667 325.333L228.333 325.667L227.667 325.333z"/>
<path style="fill:#e3e9f2; stroke:none;" d="M366 325L367 326L366 325M127 326L128 327L127 326z"/>
<path style="fill:#bf9fff; stroke:none;" d="M365 326L366 327L365 326M128.333 327.667L128.667 328.333L128.333 327.667z"/>
<path style="fill:#e3e9f2; stroke:none;" d="M365 327L366 328L365 327M364 328L365 329L364 328M128 329L129 330L128 329z"/>
<path style="fill:#bf9fff; stroke:none;" d="M363 329L364 330L363 329M129 330L130 331L129 330z"/>
<path style="fill:#e3e9f2; stroke:none;" d="M363 330L364 331L363 330M129 331L130 332L129 331M362 331L363 332L362 331M361 332L362 333L361 332z"/>
<path style="fill:#bf9fff; stroke:none;" d="M130 333L131 334L130 333z"/>
<path style="fill:#e3e9f2; stroke:none;" d="M360 333L361 334L360 333M130 334L131 335L130 334M359 334L360 335L359 334z"/>
<path style="fill:#bf9fff; stroke:none;" d="M131 335L132 336L131 335z"/>
<path style="fill:#e3e9f2; stroke:none;" d="M358 335L359 336L358 335M131 336L132 337L131 336M357 336L358 337L357 336z"/>
<path style="fill:#bf9fff; stroke:none;" d="M132 337L133 338L132 337M356 337L357 338L356 337z"/>
<path style="fill:#e3e9f2; stroke:none;" d="M132 338L133 339L132 338z"/>
<path style="fill:#bf9fff; stroke:none;" d="M355 338L356 339L355 338M133 339L134 340L133 339M354 339L355 340L354 339z"/>
<path style="fill:#e3e9f2; stroke:none;" d="M133 340L134 341L133 340z"/>
<path style="fill:#bf9fff; stroke:none;" d="M353 340L354 341L353 340z"/>
<path style="fill:#e3e9f2; stroke:none;" d="M134 341L135 342L134 341M352 341L353 342L352 341M351 342L352 343L351 342M135 343L136 344L135 343M350 343L351 344L350 343z"/>
<path style="fill:#bf9fff; stroke:none;" d="M136 344L137 345L136 344z"/>
<path style="fill:#e3e9f2; stroke:none;" d="M349 344L350 345L349 344M136 345L137 346L136 345M348 345L349 346L348 345M137 346L138 347L137 346M347 346L348 347L347 346z"/>
<path style="fill:#bf9fff; stroke:none;" d="M138 347L139 348L138 347z"/>
<path style="fill:#e3e9f2; stroke:none;" d="M345 347L346 348L345 347M138 348L139 349L138 348M344 348L345 349L344 348M139 349L140 350L139 349M343 349L344 350L343 349M140 350L141 351L140 350M342 350L343 351L342 350z"/>
<path style="fill:#bf9fff; stroke:none;" d="M141 351L142 352L141 351z"/>
<path style="fill:#e3e9f2; stroke:none;" d="M341 351L342 352L341 351z"/>
<path style="fill:#bf9fff; stroke:none;" d="M142 352L144 354L142 352z"/>
<path style="fill:#e3e9f2; stroke:none;" d="M340 352L341 353L340 352M142 353L143 354L142 353M339 353L340 354L339 353M143 354L144 355L143 354M337 354L338 355L337 354M144 355L145 356L144 355M336 355L337 356L336 355M145 356L149 360L145 356z"/>
<path style="fill:#bf9fff; stroke:none;" d="M146 356L147 357L146 356z"/>
<path style="fill:#e3e9f2; stroke:none;" d="M335 356L336 357L335 356z"/>
<path style="fill:#bf9fff; stroke:none;" d="M147 357L148 358L147 357z"/>
<path style="fill:#e3e9f2; stroke:none;" d="M333 357L334 358L333 357z"/>
<path style="fill:#bf9fff; stroke:none;" d="M148 358L149 359L148 358z"/>
<path style="fill:#e3e9f2; stroke:none;" d="M332 358L333 359L332 358z"/>
<path style="fill:#bf9fff; stroke:none;" d="M149 359L150 360L149 359z"/>
<path style="fill:#e3e9f2; stroke:none;" d="M330.667 359.333L331.333 359.667L330.667 359.333z"/>
<path style="fill:#bf9fff; stroke:none;" d="M150 360L151 361L150 360z"/>
<path style="fill:#e3e9f2; stroke:none;" d="M329 360L330 361L329 360M151 361L152 362L151 361z"/>
<path style="fill:#bf9fff; stroke:none;" d="M327 361L328 362L327 361z"/>
<path style="fill:#e3e9f2; stroke:none;" d="M328 361L329 362L328 361M152 362L153 363L152 362M326 362L327 363L326 362M153 363L154 364L153 363z"/>
<path style="fill:#bf9fff; stroke:none;" d="M154 363L155 364L154 363z"/>
<path style="fill:#e3e9f2; stroke:none;" d="M324.667 363.333L325.333 363.667L324.667 363.333M155 364L156 365L155 364z"/>
<path style="fill:#bf9fff; stroke:none;" d="M322 364L323 365L322 364z"/>
<path style="fill:#e3e9f2; stroke:none;" d="M323 364L324 365L323 364M156 365L157 366L156 365z"/>
<path style="fill:#bf9fff; stroke:none;" d="M157 365L158 366L157 365z"/>
<path style="fill:#e3e9f2; stroke:none;" d="M321 365L322 366L321 365M158 366L159 367L158 366M319 366L320 367L319 366M159 367L160 368L159 367z"/>
<path style="fill:#bf9fff; stroke:none;" d="M160 367L161 368L160 367z"/>
<path style="fill:#e3e9f2; stroke:none;" d="M317.667 367.333L318.333 367.667L317.667 367.333M161 368L162 369L161 368z"/>
<path style="fill:#bf9fff; stroke:none;" d="M315 368L316 369L315 368z"/>
<path style="fill:#e3e9f2; stroke:none;" d="M316 368L317 369L316 368z"/>
<path style="fill:#bf9fff; stroke:none;" d="M163 369L164 370L163 369z"/>
<path style="fill:#e3e9f2; stroke:none;" d="M314 369L315 370L314 369M164 370L165 371L164 370M312 370L313 371L312 370M165 371L166 372L165 371M310 371L311 372L310 371M166 372L167 373L166 372M308 372L309 373L308 372M168 373L169 374L168 373M306 373L307 374L306 373M169 374L170 375L169 374M304 374L305 375L304 374M170 375L171 376L170 375M302 375L303 376L302 375M172 376L173 377L172 376M300 376L301 377L300 376M173 377L174 378L173 377z"/>
<path style="fill:#bf9fff; stroke:none;" d="M174 377L175 378L174 377M297 377L298 378L297 377z"/>
<path style="fill:#e3e9f2; stroke:none;" d="M298 377L299 378L298 377M175 378L176 379L175 378M295.667 378.333L296.333 378.667L295.667 378.333M176.667 379.333L177.333 379.667L176.667 379.333z"/>
<path style="fill:#bf9fff; stroke:none;" d="M292 379L293 380L292 379z"/>
<path style="fill:#e3e9f2; stroke:none;" d="M293 379L294 380L293 379M178 380L179 381L178 380M290.667 380.333L291.333 380.667L290.667 380.333M180 381L181 382L180 381M287.667 381.333L288.333 381.667L287.667 381.333M182 382L183 383L182 382M284.667 382.333L285.333 382.667L284.667 382.333M184.667 383.333L185.333 383.667L184.667 383.333M281.667 383.333L282.333 383.667L281.667 383.333M186.667 384.333L187.333 384.667L186.667 384.333M278.667 384.333L279.333 384.667L278.667 384.333M189.667 385.333L190.333 385.667L189.667 385.333z"/>
<path style="fill:#bf9fff; stroke:none;" d="M191 385L192 386L191 385M273 385L274 386L273 385z"/>
<path style="fill:#e3e9f2; stroke:none;" d="M274 385L274 386L277 386L274 385M193.667 386.333L194.333 386.667L193.667 386.333M269 386L269 387L272 387L269 386M196.667 387.333L197.333 387.667L196.667 387.333z"/>
<path style="fill:#bf9fff; stroke:none;" d="M264 387L265 388L264 387z"/>
<path style="fill:#e3e9f2; stroke:none;" d="M265.667 387.333L266.333 387.667L265.667 387.333M199 388L199 389L202 389L199 388M260 388L260 389L263 389L260 388M204 389L204 390L207 390L204 389z"/>
<path style="fill:#bf9fff; stroke:none;" d="M254 389L255 390L254 389z"/>
<path style="fill:#e3e9f2; stroke:none;" d="M255 389L255 390L259 390L255 389M209 390L209 391L213 391L209 390z"/>
<path style="fill:#bf9fff; stroke:none;" d="M213 390L214 391L213 390M247 390L248 391L247 390z"/>
<path style="fill:#e3e9f2; stroke:none;" d="M248 390L248 391L252 391L248 390M217 391L217 392L224 392L217 391z"/>
<path style="fill:#bf9fff; stroke:none;" d="M224.667 391.333L225.333 391.667L224.667 391.333M233.667 391.333L234.333 391.667L233.667 391.333z"/>
<path style="fill:#e3e9f2; stroke:none;" d="M235 391L235 392L243 392L235 391z"/>
</svg>
